<svg xmlns="http://www.w3.org/2000/svg" viewBox="0 0 347.35 85.78"><defs><style>.cls-1{fill:#c6a109;}.cls-2{fill:#a62822;}</style></defs><g id="Layer_2" data-name="Layer 2"><g id="Layer_1-2" data-name="Layer 1"><path class="cls-1" d="M20.75,0c.13.2.35.14.53.17a10.6,10.6,0,1,1-4.05.14c.34-.08.69-.13,1-.2.08,0,.17,0,.19-.11Z"></path><path class="cls-2" d="M44.44,0a2.67,2.67,0,0,0,.92.17,10.58,10.58,0,1,1-3.44,0,3.53,3.53,0,0,0,1-.18Z"></path><path class="cls-2" d="M41.07,22.88c.23,0,.32.17.45.29l9.07,8.29,8.51,7.79a15.85,15.85,0,0,1,2.81,3.3,8.19,8.19,0,0,1,1.34,5.07,8.78,8.78,0,0,1-1,3.24,17.25,17.25,0,0,1-2.8,3.93L43.84,71.54c-.36.39-.71.79-1.09,1.16a1,1,0,0,0-.31.75c0,2,0,4,0,6v5.9c0,.45,0,.44-.42.44H22.54c-.42,0-.42,0-.42-.45V73.64c0-.22,0-.43,0-.65s.26-.21.37-.33l3.29-3.56c.91-1,1.83-2,2.76-2.95,1.27-1.36,2.57-2.7,3.82-4.07a10,10,0,0,0,1.22-1.38,1.76,1.76,0,0,0,.39-.38q1.93-2.05,3.86-4.12c1.32-1.43,2.69-2.82,4-4.3a8,8,0,0,0,.92-1.3,3,3,0,0,0-.15-3.43,8,8,0,0,0-1.19-1.34l-6.6-6-5-4.62a.68.68,0,0,1,.15-.26l1.47-1.56c.88-1,1.76-1.9,2.65-2.84q2.19-2.36,4.39-4.7l2.37-2.49A1.9,1.9,0,0,0,41.07,22.88Z"></path><path class="cls-2" d="M276.71,60.66a25.41,25.41,0,0,1-11.24-2.49,25.73,25.73,0,0,1-13.39-16.28,27.17,27.17,0,0,1-.69-8.57A23.43,23.43,0,0,1,255,22.19,25.89,25.89,0,0,1,267.5,11.76a23.26,23.26,0,0,1,7.64-1.58,5.29,5.29,0,0,0,.8,0c.41-.07.76.18,1.16.15a9.63,9.63,0,0,1,1.2,0,24.75,24.75,0,0,1,8.29,2,26.66,26.66,0,0,1,7.48,4.92l.21.21c.11.1.12.19,0,.29s-.14.14-.21.21l-6.44,6.43-.21.21a.18.18,0,0,1-.3,0c-.09-.1-.19-.18-.29-.28A14.25,14.25,0,0,0,279,20.52a14.74,14.74,0,0,0-14.74,6.22,14,14,0,0,0-2.76,7.84,14.49,14.49,0,0,0,2.86,9.81,14.43,14.43,0,0,0,8.26,5.7A14.85,14.85,0,0,0,287,46.46l.18-.17a.17.17,0,0,1,.29,0c0,.06.12.12.18.18l6.46,6.46a1,1,0,0,0,.15.14c.2.16.14.28,0,.44-.68.64-1.38,1.26-2.12,1.83a24.87,24.87,0,0,1-11.91,5A30.08,30.08,0,0,1,276.71,60.66Z"></path><path class="cls-1" d="M33.57,60.7a10,10,0,0,1-1.22,1.38c-1.25,1.37-2.55,2.71-3.82,4.07-.93,1-1.85,2-2.76,2.95l-3.29,3.56c-.11.12-.25.22-.37.33-.85-.77-1.71-1.53-2.55-2.31q-7.69-7-15.37-14.06a15.51,15.51,0,0,1-3.07-3.73,7.9,7.9,0,0,1-.3-7.56A16,16,0,0,1,3.7,41.16c2.82-3,5.66-6.06,8.49-9.09l8.25-8.84a1.06,1.06,0,0,1,.9-.39H40.53a1.64,1.64,0,0,1,.54,0,1.9,1.9,0,0,1-.32.44l-2.37,2.49q-2.21,2.34-4.39,4.7c-.89.94-1.77,1.89-2.65,2.84l-1.47,1.56a.68.68,0,0,0-.15.26c-.15,0-.23.18-.33.28L24,41.25c-.86.92-1.74,1.83-2.55,2.8a7.5,7.5,0,0,0-.9,1.32,3,3,0,0,0,.1,3.13,5.62,5.62,0,0,0,.66.88c.52.56,1.1,1.06,1.66,1.57Z"></path><path class="cls-2" d="M336.52,25.24c-.06-.4-.1-.74-.18-1.08a5,5,0,0,0-9.91.48,4.55,4.55,0,0,0,1.69,4.26,10.23,10.23,0,0,0,2.71,1.58,46,46,0,0,0,4.71,1.5,18.86,18.86,0,0,1,7.21,3.85,12.7,12.7,0,0,1,4.38,7.42A13.06,13.06,0,0,1,346,51.39a15.73,15.73,0,0,1-11.1,8.88A16.19,16.19,0,0,1,317,52a14.19,14.19,0,0,1-1.36-4.06c0-.24,0-.31.25-.36l6-1.27,3.08-.66a1.69,1.69,0,0,1,.56-.07,5.25,5.25,0,0,0,.19,1.12,5.18,5.18,0,0,0,1.83,2.51A6.09,6.09,0,0,0,331,50.52a5.42,5.42,0,0,0,1.87-.25A6.33,6.33,0,0,0,336.26,48a4.13,4.13,0,0,0-.74-5.88,9.69,9.69,0,0,0-3-1.53c-1.33-.48-2.71-.81-4.06-1.21a19.37,19.37,0,0,1-8.12-4.64,13.18,13.18,0,0,1-4-7.08,13.6,13.6,0,0,1,.75-7.75,14.71,14.71,0,0,1,11.34-9.51,15.11,15.11,0,0,1,17.76,11.88c.06.28.23.59.1.83s-.51.18-.78.24L337,25.17Z"></path><path class="cls-1" d="M198.49,41.36l10.92,16.93c-.17.13-.34.07-.49.07h-6.65a.77.77,0,0,1-.76-.4q-4.94-7.62-9.87-15.21a1,1,0,0,0-.92-.5c-1.87,0-3.73,0-5.6,0h-.35c-.16,0-.25.06-.24.23s0,.27,0,.4V57.65c0,.13,0,.27,0,.4s-.07.35-.31.32h-5.5c-.38,0-.38,0-.39-.38v-.25q0-17.08,0-34.17V13c0-.61-.07-.55.57-.55,4.66,0,9.33,0,14,0a16.11,16.11,0,0,1,11.06,4.16,13.2,13.2,0,0,1,4.12,6.14,13.26,13.26,0,0,1,.5,3.25,24.45,24.45,0,0,1-.11,4.19,12.4,12.4,0,0,1-1.11,3.66,18.64,18.64,0,0,1-1.93,3.2,9.26,9.26,0,0,1-4,3.11C200.46,40.57,199.52,40.94,198.49,41.36Zm-14-14.07v8.59a.19.19,0,0,0,.21.21,2.08,2.08,0,0,1,.25,0l8,0a3.38,3.38,0,0,1,.45,0,6.51,6.51,0,0,0,2.71-.32,9,9,0,0,0,5.28-4.94,9.66,9.66,0,0,0,.65-4.65,8.39,8.39,0,0,0-4.28-6.42,12.83,12.83,0,0,0-5.64-1.29c-2.36,0-4.73,0-7.09,0-.56,0-.53-.06-.53.54Z"></path><path class="cls-1" d="M163.64,31.88a1.11,1.11,0,0,0,.49.28c.82.38,1.63.75,2.43,1.17a10,10,0,0,1,3.45,3,13.79,13.79,0,0,1-8.36,21.77,14.26,14.26,0,0,1-2.53.23H143c-.37,0-.37,0-.38-.4V13.06c0-.66-.07-.59.59-.59,3.83,0,7.66,0,11.49,0A12,12,0,0,1,166,20.8a11,11,0,0,1-.49,7.56,24.3,24.3,0,0,1-1.27,2.49ZM148.7,44.48V52c0,.44,0,.44.43.45h10.05a8,8,0,0,0,1.19-.1,7.77,7.77,0,0,0,6.41-8.79,7.94,7.94,0,0,0-5.86-6.72,11.23,11.23,0,0,0-3.26-.37c-2-.06-4,.06-5.95.07h-2.65c-.35,0-.35,0-.36.37v7.54Zm0-19.65v6c0,.63-.1.61.64.57,1.63-.09,3.26-.17,4.88-.28a6.82,6.82,0,0,0,2.71-.64,6.47,6.47,0,0,0,3.58-7.18,6.07,6.07,0,0,0-5.9-4.88c-1.8,0-3.6,0-5.4,0H149c-.2,0-.27.08-.26.27s0,.23,0,.35Z"></path><path class="cls-1" d="M109.63,35.42V13c0-.69-.09-.62.6-.62h25.19c.28,0,.33.11.33.35,0,1.8,0,3.6,0,5.4,0,.36,0,.36-.35.37H116.2c-.43,0-.44,0-.44.44v13c0,.44,0,.44.49.44h13.84c.76,0,.65-.11.65.66,0,1.67,0,3.33,0,5,0,.45,0,.46-.47.46-4.63,0-9.26,0-13.9,0-.68,0-.62-.09-.62.6V51.78a2.09,2.09,0,0,1,0,.25c0,.27.1.36.35.33h19c.67,0,.59-.08.59.58,0,1.67,0,3.33,0,5,0,.6.07.54-.52.54h-25c-.68,0-.59.07-.59-.62q0-9.34,0-18.69Z"></path><path class="cls-1" d="M213.19,58.31C219.75,42.9,226.3,27.51,232.91,12l19.7,46.27c-.12.14-.24.09-.35.09h-5.79a.53.53,0,0,1-.59-.39c-1-2.25-2-4.49-3-6.74a.65.65,0,0,0-.7-.46H223.62a.61.61,0,0,0-.66.44c-1,2.25-2,4.49-3,6.74a.59.59,0,0,1-.63.42c-1.88,0-3.76,0-5.64,0A1.1,1.1,0,0,1,213.19,58.31Zm12.23-12.48h14.86a.2.2,0,0,0,0-.21c-2.64-6-4.7-12.22-7.36-18.33C230.22,33.43,228.1,39.7,225.42,45.83Z"></path><path class="cls-2" d="M310,35.38V59.46c0,.1,0,.2,0,.3,0,.59.07.53-.53.53h-9.1c-.37,0-.37,0-.38-.39V11.19c0-.75-.1-.67.66-.67h8.8c.6,0,.55-.06.55.58Z"></path><path class="cls-1" d="M77.92,35.4V13c0-.66-.07-.59.58-.59h25c.67,0,.59-.06.59.58v5c0,.6,0,.54-.53.54H84.71c-.76,0-.65-.09-.66.67V31.69c0,.14,0,.27,0,.4s.07.29.26.28h14a2,2,0,0,0,.35,0c.27,0,.33.11.33.35,0,1.8,0,3.6,0,5.4,0,.37,0,.37-.39.37H84.79c-.1,0-.2,0-.3,0-.43,0-.44,0-.44.44v19c0,.62.07.56-.55.56h-5c-.66,0-.58.07-.58-.6Z"></path><path d="M76.68,76.7a4.78,4.78,0,0,1,4.82-4.93,4.16,4.16,0,0,1,4.33,3.13l-1.73.55a2.47,2.47,0,0,0-2.6-1.91,3.15,3.15,0,0,0,0,6.28,2.62,2.62,0,0,0,2.65-1.93l1.72.52a4.3,4.3,0,0,1-4.37,3.21A4.72,4.72,0,0,1,76.68,76.7Z"></path><path d="M93.5,71.77a4.93,4.93,0,1,1-4.85,4.93A4.77,4.77,0,0,1,93.5,71.77Zm0,8.07a3.16,3.16,0,1,0-3-3.15A2.92,2.92,0,0,0,93.5,79.84Z"></path><path d="M107,79.26h-3.84l-.79,2.16h-1.94L104.06,72h2.14l3.6,9.45h-2Zm-3.23-1.68h2.62L105.09,74Z"></path><path d="M111.86,76.7a4.77,4.77,0,0,1,4.82-4.93A4.16,4.16,0,0,1,121,74.9l-1.73.55a2.47,2.47,0,0,0-2.6-1.91,3.15,3.15,0,0,0,0,6.28,2.62,2.62,0,0,0,2.65-1.93l1.72.52a4.3,4.3,0,0,1-4.37,3.21A4.72,4.72,0,0,1,111.86,76.7Z"></path><path d="M130.44,81.42V77.5h-4.12v3.92h-1.84V72h1.84v3.8h4.12V72h1.85v9.45Z"></path><path d="M136.32,81.42V72h1.87v9.45Z"></path><path d="M148.35,81.42l-4.29-6.71v6.71h-1.85V72h2.3l3.93,6.25V72h1.84v9.45Z"></path><path d="M161.38,81.42l-.12-1.08a3.26,3.26,0,0,1-2.79,1.28,4.65,4.65,0,0,1-4.72-4.92,4.75,4.75,0,0,1,4.84-4.93,4.26,4.26,0,0,1,4.32,2.9l-1.76.63a2.53,2.53,0,0,0-2.56-1.81,3.24,3.24,0,0,0,0,6.45,2.38,2.38,0,0,0,2.54-1.84h-3V76.5h4.72v4.92Z"></path><path d="M171.75,81.42V72h1.87v9.45Z"></path><path d="M183.78,81.42l-4.29-6.71v6.71h-1.84V72h2.29l3.93,6.25V72h1.85v9.45Z"></path><path d="M193.72,73.71v7.71h-1.86V73.71h-3V72h7.82v1.74Z"></path><path d="M199.86,81.42V72h5.93V73.7H201.7v2.16h3.7V77.5h-3.7v2.19h4.09v1.73Z"></path><path d="M216.53,81.42l-.12-1.08a3.24,3.24,0,0,1-2.78,1.28,4.65,4.65,0,0,1-4.72-4.92,4.75,4.75,0,0,1,4.84-4.93,4.27,4.27,0,0,1,4.32,2.9l-1.76.63a2.53,2.53,0,0,0-2.56-1.81,3.23,3.23,0,0,0,0,6.45,2.36,2.36,0,0,0,2.53-1.84h-3V76.5H218v4.92Z"></path><path d="M224.56,77.78h-1v3.64h-1.85V72h3.69a2.84,2.84,0,0,1,3,2.9,2.69,2.69,0,0,1-2,2.69l2,3.86h-2.05Zm.53-1.58a1.32,1.32,0,1,0,0-2.63H223.6V76.2Z"></path><path d="M237.55,79.26h-3.84l-.79,2.16H231L234.6,72h2.14l3.6,9.45h-2Zm-3.23-1.68h2.62L235.63,74Z"></path><path d="M243.42,81.42V72h1.84v7.69h4.21v1.76Z"></path><path d="M262.62,74.73a1.62,1.62,0,0,0-1.72-1.34,1.35,1.35,0,0,0-1.48,1.2c0,.53.33.94,1,1.07l1.32.25a2.89,2.89,0,0,1,2.64,2.79c0,1.46-1.22,2.92-3.42,2.92a3.45,3.45,0,0,1-3.76-3l1.71-.45A1.9,1.9,0,0,0,261,80c1,0,1.53-.49,1.53-1.16s-.41-1-1.15-1.12l-1.32-.26a2.76,2.76,0,0,1-2.48-2.71,3.13,3.13,0,0,1,3.3-3,3.1,3.1,0,0,1,3.38,2.45Z"></path><path d="M267.83,81.42V72h1.87v9.45Z"></path><path d="M278.44,74.73a1.62,1.62,0,0,0-1.72-1.34,1.34,1.34,0,0,0-1.48,1.2,1.08,1.08,0,0,0,1,1.07l1.32.25a2.89,2.89,0,0,1,2.64,2.79c0,1.46-1.21,2.92-3.41,2.92a3.44,3.44,0,0,1-3.76-3l1.71-.45A1.89,1.89,0,0,0,276.82,80c1,0,1.54-.49,1.54-1.16s-.42-1-1.15-1.12l-1.32-.26a2.75,2.75,0,0,1-2.48-2.71,3.43,3.43,0,0,1,6.68-.51Z"></path><path d="M287.6,73.71v7.71h-1.86V73.71h-3V72h7.82v1.74Z"></path><path d="M293.74,81.42V72h5.93V73.7h-4.09v2.16h3.7V77.5h-3.7v2.19h4.09v1.73Zm.42-10.12,1.6-1.69h1.81l1.63,1.69h-1.67l-.89-.87-.87.87Z"></path><path d="M312.11,81.42V74.79l-2.72,6.63h-1.54l-2.72-6.57v6.57h-1.76V72h2.43l2.84,6.83L311.42,72h2.5v9.45Z"></path><path d="M318,81.42V72h1.87v9.45Z"></path><path d="M323.28,76.7a4.77,4.77,0,0,1,4.82-4.93,4.16,4.16,0,0,1,4.33,3.13l-1.73.55a2.47,2.47,0,0,0-2.6-1.91,3.15,3.15,0,0,0,0,6.28,2.63,2.63,0,0,0,2.66-1.93l1.72.52a4.3,4.3,0,0,1-4.38,3.21A4.72,4.72,0,0,1,323.28,76.7Z"></path><path d="M340.1,71.77a4.93,4.93,0,1,1-4.86,4.93A4.77,4.77,0,0,1,340.1,71.77Zm0,8.07a3.16,3.16,0,1,0-3-3.15A2.92,2.92,0,0,0,340.1,79.84Z"></path></g></g></svg>