<svg xmlns="http://www.w3.org/2000/svg" viewBox="0 0 534.05 109.54"><g id="Layer_2" data-name="Layer 2"><g id="svg4"><path id="path2" d="M106.12,5C93.33-3,76.5-1.08,61.49,8.35,46.53-1.08,29.68-3,16.91,5-3.29,17.63-5.74,50.14,11.43,77.63c12.66,20.26,32.46,32.13,50.09,31.91,17.62.22,37.42-11.65,50.08-31.91,17.15-27.49,14.72-60-5.48-72.62ZM20.72,71.82a66.09,66.09,0,0,1-7.93-18.14,52,52,0,0,1-1.72-17.11C11.84,26.41,16,18.5,22.71,14.29s15.64-4.46,25.13-.7c1.42.57,2.83,1.23,4.23,1.95A77.54,77.54,0,0,0,38.45,31.92C28,48.6,24.84,67.17,28.48,82A67.66,67.66,0,0,1,20.72,71.82Zm89.52-18.15a66,66,0,0,1-7.92,18.15A68.34,68.34,0,0,1,94.56,82c3.25-13.27,1-29.53-6.94-44.78a2,2,0,0,0-2.88-.78L59.87,52A2,2,0,0,0,59,53.24a2.08,2.08,0,0,0,.26,1.54l3.65,5.83a2.07,2.07,0,0,0,1.27.91,2,2,0,0,0,1.53-.26L81.79,51.18c.53,1.57,1,3.13,1.44,4.7A51.8,51.8,0,0,1,85,73C84.19,83.12,80.05,91,73.32,95.24a22.82,22.82,0,0,1-11.53,3.34h-.52a22.82,22.82,0,0,1-11.53-3.34C43,91,38.87,83.12,38.1,73a51.92,51.92,0,0,1,1.72-17.1A67.63,67.63,0,0,1,60.58,22.63a52,52,0,0,1,14.6-9c9.46-3.76,18.38-3.51,25.13.7s10.87,12.12,11.63,22.28a51.7,51.7,0,0,1-1.7,17.11ZM238.63,41.54A23.3,23.3,0,0,0,215,64.74c0,12.9,10.57,22.94,23.65,22.94s23.73-10,23.73-22.94-10.55-23.2-23.73-23.2Zm0,34a10.94,10.94,0,1,1,10.7-10.89,10.66,10.66,0,0,1-10.7,10.89Zm53.22-51.83H267.79a1.93,1.93,0,0,0-2,2V84.36a2,2,0,0,0,2,2.08h24.06c19.26,0,32.64-12.8,32.64-31.43s-13.38-31.29-32.64-31.29Zm.57,50.33H279.25v-38h13.17c10.66,0,18,8,18,18.9,0,10.75-7.34,19.07-18,19.07Zm80-31.25h-9.05a2,2,0,0,0-1.88,2v2.69c-2.06-3.41-6.71-5.92-12.51-5.92-11.29,0-21.86,8.87-21.86,23s10.48,23.11,21.77,23.11c5.82,0,10.57-2.5,12.63-5.91v2.77a1.89,1.89,0,0,0,1.87,1.89h9.05a1.9,1.9,0,0,0,1.35-.54,1.83,1.83,0,0,0,.53-1.35V44.77a1.88,1.88,0,0,0-.53-1.39,1.92,1.92,0,0,0-1.37-.58ZM351.34,75.65c-6,0-10.49-4.6-10.49-11s4.5-11,10.49-11,10.49,4.59,10.49,11-4.49,11-10.49,11Zm71.83-51.93h-9.05a1.91,1.91,0,0,0-2,1.88V47.28c-2.08-3.23-6.81-5.74-12.71-5.74-11.2,0-21.59,8.87-21.59,23s10.48,23.11,21.76,23.11c5.82,0,10.21-2.5,12.63-5.91v2.77a1.9,1.9,0,0,0,1.88,1.89h9.05a1.82,1.82,0,0,0,1.34-.54,1.84,1.84,0,0,0,.54-1.35V25.61a1.83,1.83,0,0,0-1.88-1.89Zm-21.05,52c-6,0-10.43-4.65-10.43-11.11s4.48-11.1,10.43-11.1,10.43,4.65,10.43,11.1S408.09,75.76,402.12,75.76Zm71.82-52h-9a1.92,1.92,0,0,0-1.38.53,1.87,1.87,0,0,0-.59,1.35V47.28c-2.06-3.23-6.81-5.74-12.72-5.74-11.2,0-21.59,8.87-21.59,23s10.48,23.11,21.77,23.11c5.82,0,10.21-2.5,12.63-5.91v2.77a1.89,1.89,0,0,0,1.88,1.89h9a1.82,1.82,0,0,0,1.34-.54,1.84,1.84,0,0,0,.54-1.35V25.61a1.89,1.89,0,0,0-.53-1.35,1.86,1.86,0,0,0-1.35-.54Zm-21.05,52c-6,0-10.42-4.65-10.42-11.11s4.47-11.1,10.42-11.1,10.43,4.65,10.43,11.1-4.45,11.11-10.41,11.11Zm70.58-29.91L510,92.15c-2.6,8.24-8.42,13.16-17.46,13.16a21.83,21.83,0,0,1-10.8-2.52c-1.71-1-3.13-1.86-3.13-3.29a3.64,3.64,0,0,1,.81-2.18l2.68-4c.76-1.12,1.32-1.49,2.13-1.49a3.17,3.17,0,0,1,1.78.62,9.71,9.71,0,0,0,5.63,2c2.79,0,4.92-.89,6.06-4.21l1.16-3.84h-5.46A2.39,2.39,0,0,1,491,84.54L478.87,45.85c-.45-1.52,0-3.05,2.2-3.05h9.51c1.16,0,2,.4,2.49,2.06L502,76l8.34-31.16a2.44,2.44,0,0,1,2.42-2.06h9c1.78,0,2.31,1.25,1.69,3.05ZM211.57,59.62V84.35a2,2,0,0,1-.59,1.46,2.06,2.06,0,0,1-1.45.59h-7.47a2,2,0,0,1-2-2.05V77.86c-4.74,6-13,9.76-22.31,9.76-17.51,0-31.19-13.18-31.19-31.93,0-19.48,14.77-32.91,33.43-32.91,13.78,0,24.79,5.92,29.68,17.83a2.7,2.7,0,0,1,.23,1c0,.56-.37,1-1.57,1.4l-8.72,3.36a2.21,2.21,0,0,1-1.64,0,2.55,2.55,0,0,1-1.05-1.2c-3.12-6-8.69-10-17.27-10-11.11,0-19.07,8.68-19.07,19.94,0,10.92,6.77,19.89,19.39,19.89,6.64,0,11.93-3.13,14.4-6.57h-7.87a2,2,0,0,1-2.05-2V59.71a2,2,0,0,1,.59-1.46,2.08,2.08,0,0,1,1.46-.59h23.07a2,2,0,0,1,1.44.54,1.9,1.9,0,0,1,.6,1.42Zm312.15-26V33a.14.14,0,0,1,.15-.15h3.81a.14.14,0,0,1,.15.15v.6a.15.15,0,0,1,0,.11.12.12,0,0,1-.11,0h-1.39v3.76a.16.16,0,0,1-.16.16h-.72a.14.14,0,0,1-.1-.05.14.14,0,0,1,0-.11V33.79h-1.39a.12.12,0,0,1-.11,0,.15.15,0,0,1,0-.11Zm6.66-.62,1,2.42,1-2.42a.16.16,0,0,1,.08-.1.35.35,0,0,1,.14,0h1.21a.12.12,0,0,1,.11,0,.1.1,0,0,1,0,.1v4.53a.12.12,0,0,1,0,.11.12.12,0,0,1-.1,0h-.68a.15.15,0,0,1-.11,0,.12.12,0,0,1,0-.11V34.14L532,36.62a.27.27,0,0,1-.09.12.23.23,0,0,1-.14,0h-.55a.25.25,0,0,1-.14,0,.21.21,0,0,1-.08-.12l-1.11-2.48v3.42a.16.16,0,0,1-.05.11.15.15,0,0,1-.1,0H529a.15.15,0,0,1-.1,0,.12.12,0,0,1,0-.11V33a.12.12,0,0,1,0-.11.14.14,0,0,1,.11,0h1.17a.24.24,0,0,1,.14,0,.31.31,0,0,1,0,.1Z"></path></g></g></svg>