<svg xmlns:dc="http://purl.org/dc/elements/1.1/" xmlns:cc="http://creativecommons.org/ns#" xmlns:rdf="http://www.w3.org/1999/02/22-rdf-syntax-ns#" xmlns:svg="http://www.w3.org/2000/svg" xmlns="http://www.w3.org/2000/svg" xmlns:sodipodi="http://sodipodi.sourceforge.net/DTD/sodipodi-0.dtd" xmlns:inkscape="http://www.inkscape.org/namespaces/inkscape" id="logo-paguemenos" width="276" height="32.109" viewBox="0 0 276 32.109" sodipodi:docname="pague-menos-logo.svg" inkscape:version="0.92.2 (5c3e80d, 2017-08-06)"><metadata></metadata><defs id="defs9"></defs><g id="logo-paguemenos-g" inkscape:export-filename="G:\Users\suitedoalex\sites\pague-menos-logo-6.png" inkscape:export-xdpi="69.555138" inkscape:export-ydpi="69.555138"><path id="logo-paguemenos--bg" fill="#ED1C24" d="M0 0h29.28v29.282H0z"></path><path id="logo-paguemenos--cross" fill="#FFF" d="M25.104 10.174h-6.022V4.21H10.18v5.964H4.155v8.838h6.023v5.96h8.902v-5.96h6.022"></path><path id="logo-paguemenos--name" fill="#0054A6" d="M54.747 18.004h-5.772L47.23 25.01h-7.444l5.39-20.953H58.24c4.365 0 7.593 2.48 7.593 5.655 0 5.622-5.24 8.292-11.086 8.292M54.062 7.92h-2.544l-1.595 6.22h1.975c3.266 0 6.38-.596 6.38-3.8 0-1.73-2.317-2.42-4.216-2.42m30.906 12.44c-.607 2.293-.72 3.675-.796 4.65h-7.214c.114-.787.456-2.137.722-3.362-1.596 2.136-3.645 3.707-7.062 3.707-4.253 0-6.227-2.136-6.227-5.12 0-7.73 8.66-11.435 15.88-11.435 2.58 0 6.08.376 7.48.848L84.97 20.36zm-5.923-7.947c-3.456 0-7.215 2.985-7.215 7.1 0 1.162.495 2.104 2.09 2.104 2.354 0 4.29-2.795 5.316-6.282l.835-2.796c-.34-.1-.72-.13-1.02-.13m28.9 9.86c-1.86 7.06-5.05 9.83-14.39 9.83-2.96 0-5.77-.44-7.4-.88l1.26-3.87c2.05.85 3.99 1.1 5.73 1.1 4.83 0 6.5-1.89 7.33-4.59l.53-1.7C99.18 24.12 97.24 25 94.13 25c-4.253 0-6.268-2.01-6.268-4.775 0-7.76 8.964-11.402 16.218-11.402 2.43 0 5.733.376 7.175.816l-3.302 12.62zm-5.35-9.84c-3.45 0-7.29 2.98-7.29 7.22 0 1.19.42 2.07 1.98 2.07 2.85 0 4.64-3.42 5.43-6.25l.84-2.92c-.34-.1-.64-.13-.95-.13m28.18 9.14c-.26 1.1-.57 2.292-.68 3.423h-6.61l.53-2.795c-1.59 1.73-3.68 3.144-6.91 3.144-3.11 0-5.35-1.07-5.35-3.77 0-.565.04-1.13.19-1.697l2.738-10.77h7.027l-2.43 9.55c-.115.47-.23.972-.23 1.444 0 .977.57 1.57 1.938 1.57 2.2 0 3.19-1.726 3.57-3.265l2.356-9.298h7.023l-3.15 12.47zm10.75-2.92c-.15.28-.15.66-.15.94 0 1.98 2.21 2.61 4.25 2.61 2.17 0 4.49-.66 6.27-1.637L151.4 24c-2.468.976-5.013 1.35-8.088 1.35-4.408 0-9.08-1.285-9.08-5.53 0-6.5 5.81-10.992 13.175-10.992 3.417 0 7.67.85 7.67 4.15 0 4.87-8.96 5.684-13.555 5.684m5.47-6.72c-2.504 0-4.176 2.107-4.974 3.866 2.927 0 6.873-.63 6.873-2.512 0-.972-.83-1.35-1.9-1.35m39.69 13.086h-6.76l4.4-17.28-10.74 17.278h-6.26l-1.87-17.31-4.4 17.31h-6.45L160 4.073h11l1.29 14.323 8.697-14.33h11.087m6.73 14.61c-.153.28-.153.66-.153.94 0 1.98 2.2 2.604 4.25 2.604 2.17 0 4.48-.66 6.27-1.633l-.49 3.428c-2.47.975-5.01 1.35-8.09 1.35-4.4 0-9.07-1.287-9.07-5.527 0-6.5 5.81-10.995 13.18-10.995 3.417 0 7.67.844 7.67 4.144 0 4.87-8.962 5.683-13.556 5.683m5.47-6.724c-2.51 0-4.18 2.1-4.976 3.86 2.927 0 6.875-.63 6.875-2.51 0-.976-.832-1.35-1.9-1.35m29.55 2.387l-2.733 10.68h-7.02l2.43-9.485c.117-.503.27-.973.27-1.445 0-.94-.53-1.57-1.898-1.57-2.204 0-3.267 1.73-3.646 3.27l-2.355 9.234h-7.024l3.19-12.44c.305-1.13.57-2.263.685-3.426h6.644l-.607 2.8c1.86-2.16 3.72-3.11 6.947-3.11 3.04 0 5.354 1.07 5.354 3.77-.003.57-.08 1.13-.23 1.73m10.33 11.03c-4.44 0-8.885-1.6-8.885-5.81 0-6.5 5.355-10.71 13.138-10.71 4.445 0 8.887 1.54 8.887 5.78 0 6.47-5.392 10.746-13.137 10.746m3.224-12.85c-3.23 0-4.745 4.52-4.745 6.69 0 1.38.604 2.48 2.465 2.48 3.23 0 4.823-4.52 4.823-6.69 0-1.41-.685-2.48-2.545-2.48m27.27.44c-1.633-.567-3.38-.943-5.166-.943-1.21 0-3.53.19-3.53 1.51 0 2.074 8.58 1.855 8.58 6.034 0 4.74-6.03 5.81-10.63 5.81-2.35 0-4.665-.25-6.91-.817l1.29-3.68c1.67.75 3.5 1.224 5.43 1.224 1.33 0 3.99-.25 3.99-1.694 0-2.04-8.39-1.724-8.39-6.06 0-4.43 6.265-5.53 10.52-5.53 2.05 0 4.212.317 6.19.756l-1.37 3.396z"></path></g></svg>