<svg xmlns="http://www.w3.org/2000/svg" viewBox="0 0 3481.67 1431"><defs><style>.cls-1{fill:#fd0000;}.cls-2{fill:#f685c1;}</style></defs><g id="Layer_2" data-name="Layer 2"><g id="Layer_1-2" data-name="Layer 1"><path class="cls-1" d="M1687.52,1431h-54c-7.65-3.62-15.73-1.89-23.67-1.94-34.23-2.48-68.31-6.21-102.13-12.06-54.55-9.44-108-23-160-42.23-7.68-2.84-7.64-2.92-7.9-11.4-.94-30.63-1.84-61.25-2.87-91.88-.14-4.13.43-8.48-1.67-12.45-3.84.89-6,3.56-8.64,5.52q-57,43-114,86a374.37,374.37,0,0,1-54.71,34.8c-47.19,24.23-97.6,37.09-150.21,40.95-59,4.32-117.17-.3-173.6-19.3-90-30.3-155.85-87.55-193.45-175.5-19.75-46.2-28.46-94.82-29.13-144.9-.4-30.31-.14-60.62-.24-90.93,0-2.5.6-5.16-.71-7.79-4.26.8-6.67,3.76-9.48,5.87Q501,1069.29,401,1144.93,223.64,1278.93,46.3,1413a24.78,24.78,0,0,1-16.39,5.55c-10-.17-20-.86-29.91.46V463.68c5.25-.9,8.61-4.91,12.52-7.87Q284.74,250.3,556.88,44.67c12.2-9.21,24-19,36.94-27.18.11,5,.32,10,.32,15q0,460,0,920c0,3.33.1,6.66,0,10s1.57,4.81,4.85,4.79c6.66,0,13.32.09,20,0,14.64-.15,13.42,1.86,13.42-13.31q0-187.79,0-375.59c0-13.35.59-11.68,11.29-11,37.55,2.3,75,5.47,112.69,6.51,60.7,1.68,121.2.06,181.22-10.2,38.87-6.65,76.7-16.81,112.44-33.9,69.51-33.24,113.17-86.83,128.26-162.9,9.44-47.62,8.87-95.38.62-143-8.69-50.08-28.66-94.75-66.42-130.17-1.7-1.59-3.61-3.07-3.33-5.79C1127.66,74,1146.05,60,1164.62,46.22c13-9.62,25.32-20.11,39-28.74.1,5,.28,10,.28,15q0,293.28,0,586.55c0,36.08,3,71.87,11.79,106.94,27.41,109.77,93.37,185.73,199.58,225.92,38.93,14.73,79.46,21.78,121,24.12,56.5,3.18,111.85-2.75,165.45-21,87.13-29.73,152.35-84.77,191.17-169.09,22.64-49.16,32.17-101.33,32.55-155.21.33-46,.1-91.93.1-137.89q0-163.87,0-327.75c0-4.23-1-8.69,2.07-12.44q32.08-24.09,64.19-48.14c3.13-2.33,5.8-5.42,9.79-6.48-1.24,4-4.45,6.58-6.93,9.65a207,207,0,0,0-39.37,76.78c-13.72,50.61-13.35,101.4-.43,152.07,11,43.16,33.67,79.39,66.75,109.18,20.44,18.4,43.32,33.2,67.63,45.88,32.87,17.14,67.39,30.33,102.46,42.11,43.87,14.73,88,28.82,131.72,43.85,28.1,9.66,55,22,79.27,39.61,38.9,28.23,57.3,66.19,55.22,114.31-2.37,55-28.73,93.6-78.45,116.58-22.9,10.59-47.19,16.29-72.1,19.25-44.93,5.33-89.83,3.65-134.54-2.42-56.65-7.68-111.57-22.39-165.15-42.2q-30.93-11.43-61-24.92c-3-1.31-5.76-3.42-9.4-2.56-5.68,1.35-8.14,4.64-7.91,11.78q1.66,50.43,3.53,100.85c.48,13.39.52,13.42,13.06,17.92,74.37,26.69,151,42.83,229.68,50,62,5.68,123.76,5.72,185.31-4.4,39.65-6.52,78-17.44,113.84-35.91,60.56-31.17,101.93-78.37,119.85-144.75,10.46-38.77,11.73-78.23,6.85-117.93Q2590.86,586,2523.6,529.93c-26.36-21.89-56-38.31-87.09-52.35-39.85-18-81.33-31.41-123.14-43.95-38.9-11.67-77.93-23.05-115-39.88A264.83,264.83,0,0,1,2137.4,356c-61.06-51-69.47-168.1,21.89-217.61A237.14,237.14,0,0,1,2217.9,116c57.91-13.72,116.34-12.69,174.83-5.25,56.16,7.14,110.12,22.71,162.29,44.57a39.93,39.93,0,0,0,5.58,2.16c7,1.74,13.28-3.17,13-10.41-.33-9.65-1.1-19.29-1.45-28.94-.73-20-3.22-39.83-2.88-59.84q25.05-18.61,50.09-37.2c2.87-2.13,5.41-5.05,9.58-4.32a8.3,8.3,0,0,0-.1,1q0,469.56,0,939.11c0,1.66.08,3.33,0,5-.17,3.7,1.35,5.6,5.25,5.41,2.65-.13,5.32,0,8,0q111.43,0,222.88,0c14.38,0,13.52,2.09,13.52-13.26q0-184.32,0-368.65c0-10.81,0-10.81,10.95-10.86h329.82c16,0,13.59-.56,13.6,13.16q.09,153.86,0,307.71c0,21.31,0,42.63,0,63.94,0,7.76.18,7.77,7.65,8,2,.05,4,0,6,0q67,0,133.93,0,49,0,97.94.22c-.5,6.51-6.55,8-10.53,11q-287.62,217.51-575.38,434.88a24,24,0,0,1-15.53,5.1q-114.43-.24-228.87-.12c-12.43,0-11.15,1.35-11.15-11.27q0-122.39,0-244.76v-12c-4.27,3.06-6.95,4.89-9.54,6.85q-169,127.62-337.92,255.34a26.7,26.7,0,0,1-17.25,6q-114.43-.3-228.87-.13c-1.67,0-3.35-.14-5,0-4.52.44-5.89-1.87-5.59-6,.15-2,0-4,0-6V1279.31c-5.15,1.76-7.9,4.73-11,7-31.39,23.61-62.81,47.18-94,71-29.42,22.48-61.91,38.77-97.11,50-39.58,12.64-80.28,18.72-121.55,21.78C1701.94,1429,1694.53,1427.63,1687.52,1431Z"></path><path class="cls-2" d="M2333.33,0c2.56,2.09,5.66,1.61,8.62,1.77a1206.61,1206.61,0,0,1,193.63,26.29c8.45,1.84,16.8,4.16,25.24,6.11,4.5,1,6.72,3.3,6.78,8.26.06,5.29,1.1,10.57,1.71,15.86-.34,20,2.15,39.88,2.88,59.84.35,9.65,1.12,19.29,1.45,28.94.24,7.24-6,12.15-13,10.41a39.93,39.93,0,0,1-5.58-2.16c-52.17-21.86-106.13-37.43-162.29-44.57-58.49-7.44-116.92-8.47-174.83,5.25a237.14,237.14,0,0,0-58.61,22.36C2067.93,187.87,2076.34,305,2137.4,356a264.83,264.83,0,0,0,60.93,37.78c37.11,16.83,76.14,28.21,115,39.88,41.81,12.54,83.29,26,123.14,43.95,31.08,14,60.73,30.46,87.09,52.35q67.35,55.91,77.91,142.78c4.88,39.7,3.61,79.16-6.85,117.93-17.92,66.38-59.29,113.58-119.85,144.75-35.88,18.47-74.19,29.39-113.84,35.91-61.55,10.12-123.35,10.08-185.31,4.4-78.64-7.21-155.31-23.35-229.68-50-12.54-4.5-12.58-4.53-13.06-17.92q-1.83-50.41-3.53-100.85c-.23-7.14,2.23-10.43,7.91-11.78,3.64-.86,6.45,1.25,9.4,2.56q30.1,13.46,61,24.92c53.58,19.81,108.5,34.52,165.15,42.2,44.71,6.07,89.61,7.75,134.54,2.42,24.91-3,49.2-8.66,72.1-19.25,49.72-23,76.08-61.59,78.45-116.58,2.08-48.12-16.32-86.08-55.22-114.31-24.24-17.58-51.17-30-79.27-39.61-43.76-15-87.85-29.12-131.72-43.85-35.07-11.78-69.59-25-102.46-42.11-24.31-12.68-47.19-27.48-67.63-45.88-33.08-29.79-55.74-66-66.75-109.18-12.92-50.67-13.29-101.46.43-152.07a207,207,0,0,1,39.37-76.78c2.48-3.07,5.69-5.67,6.93-9.65l-.23.18c-.21-1.52.56-2.11,2-2.08-.16-.66.09-1,.75-1.12,0,0,.32-.52.32-.52l.66.38c37.52-37.29,83-60.48,133.43-74.56,30.49-8.51,61.59-13.59,93.11-16.76C2246.23,2,2261,3.18,2275.35,0Z"></path><path class="cls-2" d="M1609.54,1431c.1-.65.2-1.29.31-1.94,8,0,16-1.68,23.68,1.94Z"></path><path class="cls-2" d="M1709.24,1429.16a3.85,3.85,0,0,0,.27,1.84h-22C1694.53,1427.63,1701.94,1429,1709.24,1429.16Z"></path><path class="cls-2" d="M2629,16.77a4.25,4.25,0,0,1,4.52-4.29c2.66-.1,5.33-.12,8-.12h223.7c2.33,0,4.67.08,7,0,4.63-.1,6.66,2.22,6.56,6.74-.07,2.66,0,5.32,0,8q0,119.79,0,239.59c0,4.65.31,9.3.48,14-.24,2.64-.69,5.28-.69,7.93q-.09,40.94,0,81.86c0,9.06.13,9.15,9.57,9.15q167.79,0,335.59,0c9.13,0,9.21-.11,9.22-9.44q0-48.92,0-97.84,0-127.78-.12-255.57a4.73,4.73,0,0,1,4.55-3.27c3-.15,6-.18,9-.18h220.88c1.34,0,2.67,0,4,0,9.83.17,9.91.25,10.06,10.17,0,1.66,0,3.33,0,5q0,462.57-.1,925.12c0,4.67,2.13,10.07-2.7,13.94q-49-.12-97.94-.22-67-.06-133.93,0c-2,0-4,0-6,0-7.47-.21-7.62-.22-7.65-8-.09-21.31,0-42.63,0-63.94q0-153.86,0-307.71c0-13.72,2.42-13.16-13.6-13.16H2889.5c-10.91,0-10.95,0-10.95,10.86q0,184.32,0,368.65c0,15.35.86,13.25-13.52,13.26q-111.44.09-222.88,0c-2.67,0-5.34-.14-8,0-3.9.19-5.42-1.71-5.25-5.41.07-1.66,0-3.33,0-5q0-469.56,0-939.11A8.3,8.3,0,0,1,2629,16.77Z"></path><path class="cls-2" d="M1841.37,17.35c-.34-2.76.73-4.56,3.62-4.8,2.31-.2,4.65-.19,7-.19,18.61,0,37.23-.11,55.84,0,20.38.14,17.62-2.45,17.69,17.19.13,37.21,0,74.43.09,111.64,0,3.84-1.23,8.06,2.1,11.35-3.06,3.75-2.08,8.21-2.08,12.44q-.06,163.88,0,327.75c0,46,.23,91.93-.1,137.89-.38,53.88-9.91,106.05-32.55,155.21-38.82,84.32-104,139.36-191.17,169.09-53.6,18.29-109,24.22-165.45,21-41.52-2.34-82-9.39-121-24.12-106.21-40.19-172.17-116.15-199.58-225.92-8.76-35.07-11.79-70.86-11.79-106.94q0-293.28,0-586.55c0-5-.18-10-.28-15,.28-4.59,3.54-5.09,7.07-5.09,23.63,0,47.26-.11,70.89,0,6.55,0,7.2,1,7.54,7.71.15,3,0,6,0,9q0,194.12,0,388.23c0,5,.31,10,.47,14.95-.25,3.64-.72,7.28-.73,10.93q-.06,93.42,0,186.85c0,23,1.76,45.94,6.78,68.45,21.35,95.79,76.91,162.8,169.76,196,69.35,24.82,139.54,23.09,208.27-3.6,66.52-25.82,114.31-72.05,143-137.5,17.39-39.66,24.36-81.52,24.38-124.57q.18-299.78.07-599.54C1841.19,25.34,1841.3,21.35,1841.37,17.35Z"></path><path class="cls-2" d="M593.82,17.49c.14-3.25,2-4.8,5.09-5s6-.15,9-.15q92.82,0,185.63,0c41.57,0,83.11,1.17,124.41,6,43.38,5.07,86,13.84,126.29,31.42a249.94,249.94,0,0,1,55.57,33c2.84,2.24,5.38,5,9.41,5.1-.28,2.73,1.63,4.21,3.33,5.8,37.76,35.42,57.73,80.09,66.42,130.17,8.25,47.6,8.82,95.36-.62,143-15.09,76.07-58.75,129.66-128.26,162.9-35.74,17.09-73.57,27.25-112.44,33.9-60,10.26-120.52,11.88-181.22,10.2-37.64-1-75.14-4.21-112.69-6.51-10.7-.65-11.29-2.32-11.29,11q.06,187.8,0,375.59c0,15.17,1.22,13.16-13.42,13.31-6.66.06-13.32-.06-20,0-3.28,0-4.91-1.43-4.85-4.79s0-6.66,0-10q0-460,0-920C594.14,27.47,593.93,22.48,593.82,17.49Zm38.63,272.33V518.63c0,2.33.16,4.68,0,7-.36,4.47,1.37,7,6,7.17,2.66.13,5.31.48,8,.68q31.38,2.38,62.76,4.77c68.94,5.3,137.79,5.61,206.35-4.69,37.69-5.66,74.39-15,109-31.37,59.07-27.9,98.21-72.47,112.12-136.93,11.64-53.91,10.48-107.87-4.83-161.07-14.67-51-45.23-89.88-91.3-116.44-24.15-13.91-50.08-23.22-77-29.89-49.19-12.19-99.35-15.27-149.73-15.08-56.3.21-112.61,1.08-168.88,3.41-13.79.57-12.44.26-12.45,12.83Q632.44,174.42,632.45,289.82Z"></path><path class="cls-1" d="M1841.37,17.35c-.07,4-.18,8-.18,12q0,299.77-.07,599.54c0,43-7,84.91-24.38,124.57-28.7,65.45-76.49,111.68-143,137.5-68.73,26.69-138.92,28.42-208.27,3.6-92.85-33.22-148.41-100.23-169.76-196-5-22.51-6.8-45.4-6.78-68.45q0-93.42,0-186.85c0-3.65.48-7.29.73-10.93,20.78-15.51,41.63-30.93,62.32-46.55q240.11-181.29,480.17-362.64C1835.05,20.94,1837.56,18.09,1841.37,17.35Z"></path><path class="cls-1" d="M2005.13,94.78l-.66-.38s-.33.55-.32.52a4.37,4.37,0,0,1,.48.25Z"></path><path class="cls-1" d="M2003.4,96c-1.42,0-2.19.56-2,2.08Z"></path><path class="cls-1" d="M3232.83,16.75q.06,127.79.12,255.57,0,48.93,0,97.84c0,9.33-.09,9.44-9.22,9.44q-167.79,0-335.59,0c-9.44,0-9.55-.09-9.57-9.15q-.07-40.93,0-81.86c0-2.65.45-5.29.69-7.93,25-18.73,50.07-37.37,75-56.18q134.13-101.25,268.21-202.54C3225.56,19.62,3228.21,16.13,3232.83,16.75Z"></path><path class="cls-1" d="M632.45,289.82q0-115.41,0-230.81c0-12.57-1.34-12.26,12.45-12.83,56.27-2.33,112.58-3.2,168.88-3.41,50.38-.19,100.54,2.89,149.73,15.08,27,6.67,52.88,16,77,29.89,46.07,26.56,76.63,65.44,91.3,116.44,15.31,53.2,16.47,107.16,4.83,161.07-13.91,64.46-53.05,109-112.12,136.93-34.64,16.37-71.34,25.71-109,31.37-68.56,10.3-137.41,10-206.35,4.69q-31.38-2.41-62.76-4.77c-2.65-.2-5.3-.55-8-.68-4.66-.22-6.39-2.7-6-7.17.19-2.31,0-4.66,0-7Z"></path></g></g></svg>