<svg xmlns="http://www.w3.org/2000/svg" viewBox="0 0 481.51 71.58"><defs><style>.cls-1{fill:#656565;}.cls-2{fill:#4c72b6;}</style></defs><g id="Layer_2" data-name="Layer 2"><g id="svg2"><g id="g10"><g id="g16"><g id="g18"><g id="g24"><path id="path26" class="cls-1" d="M108.43,27.17V55.36H99.68V17.75H108v3.07c3.54-3.14,8.15-4,12.83-4V24.9c-4.54,0-9.56.93-12.43,2.27"></path></g><g id="g28"><path id="path30" class="cls-1" d="M149.52,34.25c0-7.21-2.47-9.89-8.22-9.89s-8.22,2.68-8.22,9.89v4.61c0,7.22,2.48,10,8.22,10s8.22-2.74,8.22-10ZM141.3,56.37c-11,0-17-5.62-17-17.51V34.25c0-11.82,6-17.44,17-17.44s17,5.62,17,17.44v4.61c0,11.89-6,17.51-17,17.51"></path></g><g id="g32"><path id="path34" class="cls-1" d="M180.92,56.37c-10.82,0-15.83-6.15-15.83-17.44V34.18c0-11.49,5-17.37,15.83-17.37a42.3,42.3,0,0,1,11.63,1.41V24.9c-4.75-.4-8-.6-10.09-.6-5.48,0-8.55,1.73-8.55,9.88v4.75c0,8.08,3.07,10,8.55,10,2.07,0,5.34-.2,10.09-.6V55a45.36,45.36,0,0,1-11.63,1.41"></path></g><g id="g36"><path id="path38" class="cls-1" d="M222.15,55.37l-13.3-17.84V55.37H200.1V3.45h8.75V34.52l13.36-16.77H232.3l-14.57,18,15,19.58Z"></path></g><g id="g40"><path id="path42" class="cls-1" d="M250.74,56.37c-10.82,0-15.83-6.15-15.83-17.44V34.18c0-11.49,5-17.37,15.83-17.37a42.3,42.3,0,0,1,11.63,1.41V24.9c-4.75-.4-8-.6-10.09-.6-5.48,0-8.55,1.73-8.55,9.88v4.75c0,8.08,3.07,10,8.55,10,2.07,0,5.34-.2,10.09-.6V55a45.36,45.36,0,0,1-11.63,1.41"></path></g><g id="g44"><path id="path46" class="cls-1" d="M292.63,34.25c0-7.21-2.47-9.89-8.21-9.89S276.2,27,276.2,34.25v4.61c0,7.22,2.47,10,8.22,10s8.21-2.74,8.21-10Zm-8.21,22.12c-11,0-17-5.62-17-17.51V34.25c0-11.82,6-17.44,17-17.44s17,5.62,17,17.44v4.61c0,11.89-6,17.51-17,17.51"></path></g><g id="g48"><path id="path50" class="cls-1" d="M333.59,55.37V31.51c0-5.41-.94-7.28-5.28-7.28-2.54,0-5.88.94-9.89,2.54v28.6h-8.75V17.75h8.42v3c4.08-2.34,8.15-4,12.36-4,10.62,0,12,6.15,12,14.7V55.37Z"></path></g><g id="g52"><path id="path54" class="cls-1" d="M364.72,56.37c-7.41,0-10.35-2.94-10.35-10.83V24.83l-7-.6V17.75h7V8.19h8.82v9.56h9.15v7.08h-9.15V45.41c0,3.47.26,4.14,3.47,4.14,1.94,0,4.61-.13,5.68-.27v6a32.22,32.22,0,0,1-7.62,1.07"></path></g><g id="g56"><path id="path58" class="cls-1" d="M401.87,33c0-4.34-.87-9.08-8.15-9.08-7.08,0-8.15,4.81-8.15,9.08v.6h16.3ZM385.5,39.33V40c0,5.48.81,9,10,9,3.94,0,8.61-.4,13.56-.87v6.61a60.2,60.2,0,0,1-14,1.61c-13.57,0-18.38-5.21-18.38-18.44V35.59c0-12.63,5.75-18.78,17-18.78,12.56,0,17,8.15,17,19.58v2.94Z"></path></g><g id="g60"><path id="path62" class="cls-1" d="M442.76,55.37V31.51c0-5.41-.93-7.28-5.28-7.28-2.54,0-5.88.94-9.89,2.54v28.6h-8.75V17.75h8.42v3c4.08-2.34,8.15-4,12.36-4,10.63,0,12,6.15,12,14.7V55.37Z"></path></g><g id="g64"><path id="path66" class="cls-1" d="M473.9,56.37c-7.42,0-10.36-2.94-10.36-10.83V24.83l-7-.6V17.75h7V8.19h8.82v9.56h9.15v7.08h-9.15V45.41c0,3.47.27,4.14,3.47,4.14,1.94,0,4.61-.13,5.68-.27v6a32.2,32.2,0,0,1-7.61,1.07"></path></g><path id="path68" class="cls-2" d="M56.29,39.62H20.21V32.05H56.29Z"></path><g id="g70"><path id="path72" class="cls-2" d="M56.29,24.49H20.21V21.05a4.12,4.12,0,0,1,4.12-4.12H52.17a4.13,4.13,0,0,1,4.12,4.12Z"></path></g><g id="g74"><path id="path76" class="cls-2" d="M56.29,47.22H20.21v3.44a4.12,4.12,0,0,0,4.12,4.13H52.17a4.13,4.13,0,0,0,4.12-4.13Z"></path></g><g id="g78"><path id="path80" class="cls-2" d="M46.71,64c-8.7,0,0,0,0,0H30.25s8.7,0,0,0C9.52,64,9.59,51.68,9.59,35.83S9.52,7.58,30.25,7.58H46.71c20.72,0,20.66,12.4,20.66,28.25S67.43,64,46.71,64M48.16,0H28.85C9.59,0,0,11.73,0,35.83S9.59,71.58,28.85,71.58H48.16C67.43,71.58,77,59.93,77,35.83S67.43,0,48.16,0"></path></g></g></g></g></g></g></svg>