<svg xmlns="http://www.w3.org/2000/svg" viewBox="0 0 514.75 278.23"><defs><style>.cls-1{fill:#1d66c4;fill-rule:evenodd;}</style></defs><g id="Layer_2" data-name="Layer 2"><g id="svg2"><g id="g10"><path id="path68" class="cls-1" d="M322.07,183.17l54.34-87.83h30.27l16.38,87.85H395l-2.36-17.65H356.8l-9.92,17.65H295.15q-.25-4.91,1.36-19.94c.33-3.5.5-5.91.5-7.21,0-2.69-.68-4.58-2.05-5.69s-4-1.65-8-1.65H276.54l-7.45,34.49H244.15l19-88.29h41.44a128.68,128.68,0,0,1,14.14.49q8.44,1.23,12,5.87a16.08,16.08,0,0,1,3.35,10.4,32.46,32.46,0,0,1-.75,6.72q-2.48,11.37-11.79,16.39a43.47,43.47,0,0,1-14.64,4.52l-.12.49q9.68.24,13.15,3.79,3,2.94,3,9.9c0,1.55-.13,4.2-.37,7.95q-1.12,16.37-.5,21.75ZM139.42,278.23H302.06l6.05-30.08H145.47Zm9.94-46.69H312L318,201.46H155.41ZM181.9,76.78H344.53l6.06-30.09H188Zm9.94-46.69H354.47l6-30.09H197.89Zm236.68,153.1,19-88.26h67.24l-3.59,16.92H468.47l-4,18.38h40.2L501,147.15h-40.2l-4,18.87h43.67l-3.72,17.17Zm-347,0,19-88.26h67.24l-3.59,16.92H121.47l-4,18.38h40.19L154,147.15h-40.2l-4,18.87h43.68l-3.73,17.17ZM.86,154.42H25.42a20,20,0,0,0-.49,3.86q0,9.24,12.47,9.23,13.08,0,15.28-9.58a11.08,11.08,0,0,0,.24-2.23q0-4.32-6.11-6L26.4,144.36Q9,139.8,9,126.7a26.77,26.77,0,0,1,.62-5.49Q12.22,110,22.49,102.85q11.61-8.07,30.19-8.07,31,0,31,19.18a37.89,37.89,0,0,1-1,7.71H57.93a16,16,0,0,0,.61-4Q58.54,110,49,110a16,16,0,0,0-9,2.51,9.69,9.69,0,0,0-4.52,6.38,8.4,8.4,0,0,0-.25,2q0,4.78,7.21,6.66l15.52,4.09q10.16,2.7,14.18,5.38A14.41,14.41,0,0,1,79,149.86a28,28,0,0,1-.74,6.08q-2.93,13.56-15.76,20.7-11.74,6.54-29.22,6.55-22.6,0-29.82-10.06A18.89,18.89,0,0,1,0,161.67a40.12,40.12,0,0,1,.86-7.25Zm158.49,28.77,18.9-88.54h48.47c1.55.12,2.87.28,4,.47q8.56,1.59,13,6.4a15.25,15.25,0,0,1,4.1,10.72,22,22,0,0,1-.5,4.55Q244,132.2,223.87,137l-.12.25q17.49,3.21,17.49,16.51A26.22,26.22,0,0,1,236.53,169a30.94,30.94,0,0,1-12.6,10.53q-7.87,3.69-25,3.7Zm39.71-72.8-4.22,19.71H206.5q6.57,0,8.93-1.11a11.72,11.72,0,0,0,6.46-8.62q1.11-5.18-1.74-7.89-2.24-2.08-7.57-2.09Zm-7.57,35.47L187,166.93h13.77q12.78,0,15-10.35a13.6,13.6,0,0,0,.37-3q0-7.76-11.66-7.76Zm174.62,3.5h24.32l-3.6-36.86h-.37ZM284.6,111.17,280,132.81h9.31c5.29,0,8.76-.25,10.42-.73q7.06-2.09,8.68-10a14.42,14.42,0,0,0,.37-3.06,6.68,6.68,0,0,0-5-6.84c-2-.66-5.29-1-9.92-1Z"></path></g></g></g></svg>