<svg xmlns="http://www.w3.org/2000/svg" id="Layer_2" viewBox="0 0 271.85 67.15"><defs><style>.cls-1{fill:#002c5c;}.cls-2{fill:#00ccdf;}.cls-3{fill:#d387fe;}</style></defs><g id="Layer_1-2"><g><path class="cls-1" d="m36.55,20.54c1.96-2.18,3.15-5.06,3.15-8.22,0-6.8-5.51-12.31-12.31-12.31H9.88v22.56C3.88,27.08,0,34.27,0,42.36c0,13.69,11.1,24.79,24.79,24.79s24.79-11.1,24.79-24.79c0-9.43-5.27-17.64-13.03-21.83"></path><path class="cls-3" d="m24.79,7c1.02,2.39,2.93,4.3,5.32,5.32-2.39,1.02-4.3,2.93-5.32,5.32-1.02-2.39-2.93-4.3-5.32-5.32,2.39-1.02,4.3-2.93,5.32-5.32"></path><path class="cls-2" d="m24.79,52.69c-5.7,0-10.33-4.62-10.33-10.33,0-4.51,2.89-8.34,6.92-9.75v-12.09h6.81v12.09c4.03,1.41,6.92,5.24,6.92,9.75,0,5.7-4.62,10.33-10.33,10.33"></path><path class="cls-1" d="m66.39,48.15v-27.43h10.78c5.13,0,8.58,3.45,8.58,7.76,0,2.67-1.49,4.51-2.47,5.21,1.61.98,3.17,2.98,3.17,6.23,0,4.78-3.64,8.23-8.43,8.23h-11.64Zm5.37-16.18h4.86c2,0,3.61-1.1,3.61-3.29,0-2.08-1.61-3.21-3.61-3.21h-4.86v6.51Zm0,11.44h5.37c2.51,0,3.76-1.53,3.8-3.49.04-1.96-1.41-3.41-3.8-3.41h-5.37v6.9Z"></path><path class="cls-1" d="m89.23,48.15v-18.03h4.59v2.12c.98-1.61,2.94-2.39,4.98-2.39h1.37v4.66h-1.92c-2.7,0-4.19,1.68-4.19,4.39v9.25h-4.82Z"></path><path class="cls-1" d="m101.81,42.66c0-3.14,2.51-5.17,6.03-5.17h3.92c.94,0,1.53-.51,1.53-1.37s-1.14-2.12-3.45-2.12c-2,0-3.29,1.1-3.92,2.43l-3.53-2.27c1.14-2.43,3.76-4.47,7.45-4.47,5.53,0,8.19,3.84,8.19,7.56v10.89h-4.55v-1.25c-.74.82-2.31,1.68-4.74,1.68-4.31,0-6.94-2.67-6.94-5.92m11.44-1.41v-.23h-4.51c-1.14,0-1.92.7-1.92,1.76s.94,1.88,2.59,1.88c2.39,0,3.84-1.53,3.84-3.41"></path><path class="cls-1" d="m121.8,48.15v-18.03h4.66v1.45c.74-.86,2.35-1.88,4.74-1.88,4.11,0,7.13,3.06,7.13,7.02v11.44h-4.9v-10.42c0-1.96-1.14-3.53-3.33-3.53-1.96,0-3.41,1.45-3.41,3.72v10.23h-4.9Z"></path><path class="cls-1" d="m155.62,20.72h4.9v27.43h-4.9v-.98c-1.53.94-3.33,1.41-5.06,1.41-5.41,0-9.52-4.39-9.52-9.45s4.11-9.44,9.52-9.44c1.73,0,3.53.47,5.06,1.41v-10.39Zm0,18.42c0-2.67-1.96-4.78-4.74-4.82-2.78.04-4.74,2.15-4.74,4.82s1.96,4.78,4.74,4.82c2.78-.04,4.74-2.12,4.74-4.82"></path><path class="cls-1" d="m163.22,23.7c0-1.68,1.33-3.02,3.09-3.02s3.14,1.33,3.14,3.02-1.29,2.94-3.14,2.94-3.09-1.29-3.09-2.94m.67,6.43h4.9v18.03h-4.9v-18.03Z"></path><path class="cls-1" d="m172.35,48.15v-18.03h4.66v1.45c.74-.86,2.35-1.88,4.74-1.88,4.11,0,7.13,3.06,7.13,7.02v11.44h-4.9v-10.42c0-1.96-1.14-3.53-3.33-3.53-1.96,0-3.41,1.45-3.41,3.72v10.23h-4.9Z"></path><path class="cls-1" d="m206.17,30.12h4.9v18.18c0,5.37-4,9.33-9.88,9.33-3.92,0-6.9-1.92-8.27-4.43l3.76-2.74c.74,1.37,2.55,2.43,4.51,2.43,3.1,0,4.98-2,4.98-4.59v-1.14c-1.53.94-3.33,1.41-5.06,1.41-5.41,0-9.52-4.39-9.52-9.45s4.11-9.44,9.52-9.44c1.73,0,3.53.47,5.06,1.41v-.98Zm0,9.01c0-2.67-1.96-4.78-4.74-4.82-2.78.04-4.74,2.15-4.74,4.82s1.96,4.78,4.74,4.82c2.78-.04,4.74-2.12,4.74-4.82"></path><path class="cls-1" d="m213.89,45.53c0-1.65,1.29-3.06,3.14-3.06s3.14,1.41,3.14,3.06-1.21,3.02-3.14,3.02-3.14-1.41-3.14-3.02"></path><path class="cls-1" d="m229.53,48.42c-4.19,0-6.51-2.23-6.51-6.78v-20.93h4.9v20.81c0,1.41.82,2.27,2.55,2.27v4.62h-.94Z"></path><path class="cls-1" d="m232.39,42.66c0-3.14,2.51-5.17,6.03-5.17h3.92c.94,0,1.53-.51,1.53-1.37s-1.14-2.12-3.45-2.12c-2,0-3.29,1.1-3.92,2.43l-3.53-2.27c1.14-2.43,3.76-4.47,7.45-4.47,5.53,0,8.19,3.84,8.19,7.56v10.89h-4.55v-1.25c-.74.82-2.31,1.68-4.74,1.68-4.31,0-6.94-2.67-6.94-5.92m11.44-1.41v-.23h-4.51c-1.14,0-1.92.7-1.92,1.76s.94,1.88,2.59,1.88c2.39,0,3.84-1.53,3.84-3.41"></path><path class="cls-1" d="m271.85,39.14c0,5.06-4.08,9.45-9.52,9.45-1.73,0-3.53-.47-5.06-1.41v.98h-4.9v-27.43h4.9v10.39c1.53-.94,3.33-1.41,5.06-1.41,5.45,0,9.52,4.39,9.52,9.44m-5.09,0c0-2.67-1.96-4.78-4.74-4.82-2.78.04-4.74,2.15-4.74,4.82s1.96,4.78,4.74,4.82c2.78-.04,4.74-2.12,4.74-4.82"></path></g></g></svg>