<svg width="605" height="109" viewBox="0 0 605 109" fill="none" xmlns="http://www.w3.org/2000/svg">
<path d="M396.528 26.417C401.62 26.417 406.919 27.7957 411.422 30.5547V27.708H425.845V81.0693C425.845 96.831 414.07 108.454 396.764 108.454C385.226 108.454 376.455 102.818 372.423 95.4512L383.489 87.4092C385.667 91.4302 390.995 94.5409 396.764 94.541C405.888 94.541 411.422 88.6713 411.422 81.0693V77.7227C406.919 80.4817 401.62 81.8613 396.528 81.8613C380.605 81.8612 368.508 68.9758 368.508 54.124C368.508 39.2723 380.605 26.4171 396.528 26.417ZM561.826 30.6436C566.329 27.8846 571.627 26.5049 576.719 26.5049C592.76 26.5049 604.74 39.3904 604.74 54.2129L604.731 54.8779C604.364 69.4346 592.48 81.9199 576.719 81.9199C571.627 81.9199 566.329 80.541 561.826 77.7822V80.6582H547.403V0.147461H561.826V30.6436ZM277.058 80.6289H262.635V77.752C258.131 80.511 252.833 81.8906 247.741 81.8906C231.818 81.8905 219.721 69.0051 219.721 54.1533C219.721 39.3015 231.818 26.4454 247.741 26.4453C252.833 26.4453 258.131 27.825 262.635 30.584V0.117188H277.058V80.6289ZM127.889 26.4463C144.165 26.4463 151.995 37.7171 151.995 48.6357V80.5996H138.603V76.9307C136.424 79.3375 131.804 81.8623 124.651 81.8623C111.966 81.8623 104.225 74.0254 104.225 64.4863L104.26 64.0859C104.486 55.1144 111.803 49.341 122.002 49.3408H133.54C136.307 49.3408 138.044 47.8436 138.044 45.3193C138.044 42.7951 134.688 39.0967 127.889 39.0967C122.002 39.0968 118.206 42.3258 116.352 46.2295L105.961 39.5664C109.316 32.4341 117.028 26.4465 127.889 26.4463ZM512.23 26.4463C528.507 26.4463 536.337 37.7171 536.337 48.6357V80.5996H522.944V76.9307C520.766 79.3375 516.145 81.8623 508.993 81.8623C496.308 81.8623 488.567 74.0254 488.566 64.4863L488.602 64.0859C488.828 55.1144 496.145 49.341 506.344 49.3408H517.882C520.649 49.3408 522.386 47.8436 522.386 45.3193C522.386 42.7951 519.03 39.0967 512.23 39.0967C506.344 39.0968 502.548 42.3258 500.693 46.2295L490.303 39.5664C493.658 32.4341 501.37 26.4465 512.23 26.4463ZM443.387 63.957C448.832 63.9571 452.629 68.0955 452.629 72.9385C452.629 77.7815 449.067 81.8027 443.387 81.8027C437.706 81.8027 434.145 77.6641 434.145 72.9385C434.145 68.0955 437.942 63.957 443.387 63.957ZM475.438 61.1689C475.439 65.3072 477.852 67.831 482.943 67.8311V81.3916H480.177V81.4209C467.844 81.4209 461.016 74.8754 461.016 61.5205V0.0878906H475.438V61.1689ZM31.7295 0.117188C46.8287 0.11721 56.9832 10.2433 56.9834 22.8936C56.9834 30.7304 52.5974 36.1319 49.7129 38.1865C54.4516 41.0629 59.0438 46.9327 59.0439 56.4717C59.0439 70.5017 48.33 80.6288 34.2314 80.6289H0V0.117188H31.7295ZM190.759 26.4463C202.856 26.4465 211.744 35.4278 211.744 47.0508V80.6289H197.322V50.0449C197.322 44.292 193.966 39.6836 187.521 39.6836C181.752 39.6837 177.484 43.9399 177.484 50.6025V80.6289H163.091V27.708H176.807V31.9648C178.985 29.4406 183.724 26.4463 190.759 26.4463ZM301.398 80.6289H286.976V27.708H301.398V80.6289ZM339.545 26.4463C351.642 26.4465 360.53 35.4278 360.53 47.0508V80.6289H346.108V50.0449C346.108 44.292 342.753 39.6836 336.307 39.6836C330.538 39.6837 326.271 43.9399 326.271 50.6025V80.6289H311.877V27.708H325.593V31.9648C327.771 29.4406 332.51 26.4463 339.545 26.4463ZM99.4258 40.5918H93.7744C85.8275 40.5919 81.4424 45.5233 81.4424 53.4775V80.627H67.2256V27.707H80.7354V33.9287C83.6199 29.2032 89.3892 26.9141 95.3936 26.9141H99.4258V40.5918ZM124.681 59.7012C121.325 59.7013 119.029 61.7561 119.029 64.8672C119.029 67.9785 121.797 70.3857 126.653 70.3857C133.688 70.3856 137.955 65.8948 137.955 60.377V59.7012H124.681ZM508.993 59.7012C505.638 59.7012 503.342 61.7561 503.342 64.8672C503.342 67.9784 506.109 70.3856 510.965 70.3857C517.999 70.3857 522.267 65.8949 522.268 60.377V59.7012H508.993ZM575.777 40.0361C567.595 40.1535 561.826 46.3467 561.826 54.1836C561.826 62.0203 567.595 68.2137 575.777 68.3311C583.96 68.2136 589.728 62.1083 589.729 54.1836C589.729 46.3468 583.96 40.1536 575.777 40.0361ZM248.684 40.0352C240.501 40.1526 234.732 46.3458 234.731 54.1826C234.731 62.0195 240.501 68.2127 248.684 68.3301C256.866 68.2125 262.635 62.1074 262.635 54.1826C262.635 46.3459 256.866 40.1527 248.684 40.0352ZM397.471 40.0352C389.288 40.1526 383.519 46.346 383.519 54.1826C383.519 62.0195 389.288 68.2127 397.471 68.3301C405.653 68.2125 411.422 62.1074 411.422 54.1826C411.422 46.3461 405.653 40.1527 397.471 40.0352ZM15.8057 66.7158H31.6113C38.9991 66.7158 42.6791 62.2246 42.7969 56.4717C42.9144 50.719 38.6457 46.4629 31.6113 46.4629H15.8057V66.7158ZM15.8057 33.1377H30.1104C35.9969 33.1377 40.7361 29.9092 40.7363 23.4814C40.7363 17.3763 35.997 14.0596 30.1104 14.0596H15.8057V33.1377ZM294.099 0C299.279 0 303.341 3.90385 303.341 8.86426C303.341 13.8246 299.544 17.4932 294.099 17.4932C288.654 17.4931 285.004 13.7072 285.004 8.86426C285.004 3.93327 288.918 0.000107402 294.099 0Z" fill="#002C5C"/>
</svg>
